<svg xmlns="http://www.w3.org/2000/svg" xmlns:xlink="http://www.w3.org/1999/xlink" width="500" zoomAndPan="magnify" viewBox="0 0 375 374.999991" height="500" preserveAspectRatio="xMidYMid meet" version="1.0"><defs><g/></defs><g fill="#423b3b" fill-opacity="1"><g transform="translate(-0.647266, 306.454125)"><g><path d="M 19.453125 0 L 19.453125 -244.015625 L 76.859375 -244.015625 L 76.859375 0 Z M 156.5 -222.25 C 147.863281 -231.507812 139.835938 -237.453125 132.421875 -240.078125 C 125.015625 -242.703125 121.3125 -244.015625 121.3125 -244.015625 L 178.265625 -244.015625 L 178.265625 -187.53125 C 178.265625 -187.53125 176.875 -190.925781 174.09375 -197.71875 C 171.320312 -204.507812 165.457031 -212.6875 156.5 -222.25 Z M 136.59375 -161.59375 L 136.59375 -73.625 C 136.59375 -73.625 135.585938 -76.320312 133.578125 -81.71875 C 131.578125 -87.125 127.023438 -93.378906 119.921875 -100.484375 C 114.054688 -106.648438 108.578125 -111.046875 103.484375 -113.671875 C 98.390625 -116.296875 95.070312 -117.609375 93.53125 -117.609375 C 95.070312 -117.609375 98.390625 -118.921875 103.484375 -121.546875 C 108.578125 -124.171875 114.054688 -128.566406 119.921875 -134.734375 C 127.023438 -141.835938 131.578125 -148.085938 133.578125 -153.484375 C 135.585938 -158.890625 136.59375 -161.59375 136.59375 -161.59375 Z M 162.53125 -25.9375 C 173.019531 -36.738281 179.960938 -46.226562 183.359375 -54.40625 C 186.753906 -62.582031 188.453125 -66.671875 188.453125 -66.671875 L 188.453125 0 L 121.3125 0 C 121.3125 0 123.316406 -0.613281 127.328125 -1.84375 C 131.347656 -3.082031 136.519531 -5.550781 142.84375 -9.25 C 149.175781 -12.957031 155.738281 -18.519531 162.53125 -25.9375 Z M 162.53125 -25.9375 "/></g></g></g><g fill="#423b3b" fill-opacity="1"><g transform="translate(143.818947, 306.454125)"><g/></g></g><g fill="#423b3b" fill-opacity="1"><g transform="translate(180.398222, 306.454125)"><g><path d="M 19.453125 -0.46875 L 19.453125 -244.484375 L 76.859375 -244.015625 L 76.859375 -0.46875 Z M 121.3125 -244.015625 L 178.265625 -244.015625 L 178.265625 -187.53125 C 178.265625 -187.53125 176.875 -190.925781 174.09375 -197.71875 C 171.320312 -204.507812 165.457031 -212.6875 156.5 -222.25 C 147.863281 -231.507812 139.835938 -237.453125 132.421875 -240.078125 C 125.015625 -242.703125 121.3125 -244.015625 121.3125 -244.015625 Z M 93.53125 -117.609375 C 95.070312 -117.609375 98.390625 -118.921875 103.484375 -121.546875 C 108.578125 -124.171875 114.054688 -128.566406 119.921875 -134.734375 C 127.023438 -141.835938 131.578125 -148.085938 133.578125 -153.484375 C 135.585938 -158.890625 136.59375 -161.59375 136.59375 -161.59375 L 136.59375 -73.625 C 136.59375 -73.625 135.585938 -76.320312 133.578125 -81.71875 C 131.578125 -87.125 127.023438 -93.378906 119.921875 -100.484375 C 114.054688 -106.648438 108.578125 -111.046875 103.484375 -113.671875 C 98.390625 -116.296875 95.070312 -117.609375 93.53125 -117.609375 Z M 93.53125 -117.609375 "/></g></g></g></svg>