<svg xmlns="http://www.w3.org/2000/svg" xmlns:xlink="http://www.w3.org/1999/xlink" width="500" zoomAndPan="magnify" viewBox="0 0 375 374.999991" height="500" preserveAspectRatio="xMidYMid meet" version="1.0"><defs><filter x="0%" y="0%" width="100%" height="100%" id="43f6aa1049"><feColorMatrix values="0 0 0 0 1 0 0 0 0 1 0 0 0 0 1 0 0 0 1 0" color-interpolation-filters="sRGB"/></filter><clipPath id="7d5dab88bd"><path d="M 4 3.253906 L 310 3.253906 L 310 316.003906 L 4 316.003906 Z M 4 3.253906 " clip-rule="nonzero"/></clipPath><mask id="9943240747"><g filter="url(#43f6aa1049)"><rect x="-37.5" width="450" fill="#000000" y="-37.499999" height="449.999989" fill-opacity="0.982"/></g></mask><clipPath id="e37c626f2a"><path d="M 0.078125 0.601562 L 305.359375 0.601562 L 305.359375 313 L 0.078125 313 Z M 0.078125 0.601562 " clip-rule="nonzero"/></clipPath><clipPath id="5bdbf51dd6"><rect x="0" width="306" y="0" height="314"/></clipPath><clipPath id="2e693419c9"><path d="M 142 156 L 362 156 L 362 375 L 142 375 Z M 142 156 " clip-rule="nonzero"/></clipPath><clipPath id="3170d07f45"><path d="M 282.714844 156.542969 L 362.109375 294.300781 L 221.753906 375.195312 L 142.355469 237.4375 Z M 282.714844 156.542969 " clip-rule="nonzero"/></clipPath><clipPath id="5ef34362d3"><path d="M 282.714844 156.542969 L 362.109375 294.300781 L 221.753906 375.195312 L 142.355469 237.4375 Z M 282.714844 156.542969 " clip-rule="nonzero"/></clipPath><mask id="2d3303f032"><g filter="url(#43f6aa1049)"><rect x="-37.5" width="450" fill="#000000" y="-37.499999" height="449.999989" fill-opacity="0.982"/></g></mask><clipPath id="2a1d7f1787"><path d="M 16 32 L 190 32 L 190 195 L 16 195 Z M 16 32 " clip-rule="nonzero"/></clipPath><clipPath id="2dda786e2a"><path d="M 140.714844 0.542969 L 220.109375 138.300781 L 79.753906 219.195312 L 0.355469 81.4375 Z M 140.714844 0.542969 " clip-rule="nonzero"/></clipPath><clipPath id="25f640ae3f"><path d="M 140.714844 0.542969 L 220.109375 138.300781 L 79.753906 219.195312 L 0.355469 81.4375 Z M 140.714844 0.542969 " clip-rule="nonzero"/></clipPath><clipPath id="44bebabb7c"><rect x="0" width="220" y="0" height="219"/></clipPath></defs><g clip-path="url(#7d5dab88bd)"><g mask="url(#9943240747)"><g transform="matrix(1, 0, 0, 1, 4, 3)"><g clip-path="url(#5bdbf51dd6)"><g clip-path="url(#e37c626f2a)"><path fill="#e43d12" d="M 175.398438 0.683594 C 184.988281 0.25 193.53125 2.96875 201.027344 8.835938 C 208.015625 15.019531 213.0625 22.519531 216.171875 31.339844 C 219.058594 40.199219 221.917969 49.070312 224.757812 57.949219 C 227.921875 67.347656 231.398438 76.625 235.179688 85.785156 C 242.554688 102.710938 251.710938 118.527344 262.648438 133.242188 C 268.566406 141.1875 274.859375 148.832031 281.53125 156.171875 C 283.988281 159.117188 286.441406 162.0625 288.890625 165 C 290.71875 167.390625 292.519531 169.800781 294.285156 172.238281 C 298.144531 177.789062 301.128906 183.796875 303.238281 190.261719 C 306.402344 201.929688 305.828125 213.535156 301.519531 225.089844 C 298.265625 233.316406 294.054688 241 288.890625 248.140625 C 280.933594 258.636719 272.042969 268.347656 262.21875 277.265625 C 251.703125 286.574219 239.847656 293.769531 226.65625 298.847656 C 219.472656 301.292969 212.09375 302.414062 204.523438 302.222656 C 199.410156 302.085938 194.324219 301.453125 189.257812 300.320312 C 184.789062 299.285156 180.375 298.058594 176.011719 296.640625 C 169.996094 294.703125 163.988281 292.742188 157.988281 290.753906 C 151.210938 288.574219 144.28125 287.164062 137.199219 286.523438 C 136.996094 286.566406 136.792969 286.605469 136.589844 286.648438 C 129.773438 285.851562 123.335938 287.097656 117.273438 290.386719 C 115.351562 291.46875 113.472656 292.613281 111.632812 293.820312 C 106.339844 297.847656 100.945312 301.730469 95.445312 305.46875 C 91.449219 307.878906 87.238281 309.84375 82.816406 311.355469 C 76.367188 313.089844 69.824219 313.332031 63.195312 312.09375 C 53.058594 309.636719 45.476562 303.851562 40.449219 294.742188 C 37.910156 289.90625 36.519531 284.753906 36.28125 279.289062 C 36.257812 274.421875 36.195312 269.558594 36.09375 264.695312 C 36.09375 262.460938 35.992188 260.210938 35.789062 257.953125 C 34.582031 252.550781 33.070312 247.238281 31.25 242.011719 C 24.246094 224.753906 17.625 207.339844 11.386719 189.773438 C 9.390625 184 7.46875 178.195312 5.621094 172.359375 C 3.613281 165.597656 2.0625 158.730469 0.964844 151.757812 C -0.257812 143.347656 -0.175781 134.886719 1.207031 126.375 C 4.601562 108.675781 14.675781 96.554688 31.4375 90.015625 C 34.105469 89.003906 36.804688 88.0625 39.527344 87.195312 C 45.773438 85.441406 52.027344 83.726562 58.289062 82.042969 C 70.730469 78.539062 81.5625 72.328125 90.785156 63.40625 C 93.664062 60.613281 96.460938 57.730469 99.1875 54.761719 C 104.203125 48.84375 109.316406 42.996094 114.515625 37.226562 C 123.179688 28.1875 132.601562 20.113281 142.78125 13.007812 C 148.910156 8.988281 155.433594 5.699219 162.339844 3.132812 C 166.589844 1.703125 170.945312 0.882812 175.398438 0.683594 Z M 176.992188 9.144531 C 186.726562 9.75 194.554688 13.917969 200.476562 21.652344 C 203.894531 26.03125 206.550781 30.855469 208.445312 36.121094 C 211.589844 45.894531 214.859375 55.664062 218.257812 65.429688 C 222.226562 76.832031 226.765625 87.992188 231.867188 98.90625 C 238.070312 111.5625 245.265625 123.578125 253.453125 134.957031 C 256.347656 138.875 259.289062 142.757812 262.28125 146.609375 C 268.855469 154.441406 275.375 162.328125 281.839844 170.273438 C 284.785156 174.019531 287.464844 177.941406 289.871094 182.046875 C 297.238281 195.542969 298.261719 209.523438 292.9375 223.984375 C 289.277344 233.308594 284.332031 241.851562 278.097656 249.613281 C 271.140625 258.125 263.519531 265.992188 255.230469 273.21875 C 245.933594 281.066406 235.550781 287.15625 224.082031 291.492188 C 219.789062 292.960938 215.375 293.820312 210.839844 294.066406 C 202.949219 294.65625 195.179688 293.921875 187.539062 291.859375 C 177.757812 288.964844 168.027344 285.902344 158.355469 282.660156 C 149.367188 279.820312 140.167969 278.453125 130.761719 278.554688 C 124.808594 278.898438 119.210938 280.46875 113.964844 283.273438 C 111.652344 284.527344 109.402344 285.875 107.21875 287.320312 C 101.925781 291.347656 96.53125 295.230469 91.03125 298.972656 C 87.015625 301.449219 82.722656 303.289062 78.15625 304.488281 C 73.910156 305.265625 69.65625 305.308594 65.402344 304.613281 C 58.511719 303.121094 53.054688 299.503906 49.03125 293.757812 C 46.660156 290.402344 45.144531 286.683594 44.496094 282.601562 C 44.253906 280.988281 44.066406 279.371094 43.945312 277.757812 C 43.945312 273.984375 43.988281 270.34375 44.066406 266.84375 C 43.949219 262.691406 43.683594 258.542969 43.269531 254.398438 C 42.402344 251.875 41.707031 249.300781 41.183594 246.671875 C 38.742188 239.421875 35.960938 232.308594 32.847656 225.335938 C 27.195312 210.722656 21.71875 196.050781 16.414062 181.3125 C 13.925781 174.09375 11.757812 166.777344 9.914062 159.359375 C 7.679688 150.234375 7.027344 140.996094 7.953125 131.648438 C 8.808594 124.257812 11.257812 117.472656 15.308594 111.292969 C 19.972656 105.199219 25.882812 100.722656 33.03125 97.863281 C 37.152344 96.191406 41.363281 94.757812 45.660156 93.570312 C 51.484375 92.054688 57.289062 90.460938 63.074219 88.789062 C 74.25 85.308594 84.183594 79.707031 92.871094 71.988281 C 97.25 67.734375 101.523438 63.339844 105.6875 58.808594 C 109.457031 54.328125 113.257812 49.875 117.089844 45.441406 C 125.324219 36.386719 134.375 28.316406 144.253906 21.222656 C 149.9375 17.359375 155.984375 14.128906 162.402344 11.535156 C 167.164062 9.882812 172.03125 9.085938 176.992188 9.144531 Z M 176.992188 9.144531 " fill-opacity="1" fill-rule="evenodd"/></g></g></g></g></g><g clip-path="url(#2e693419c9)"><g clip-path="url(#3170d07f45)"><g clip-path="url(#5ef34362d3)"><g mask="url(#2d3303f032)"><g transform="matrix(1, 0, 0, 1, 142, 156)"><g clip-path="url(#44bebabb7c)"><g clip-path="url(#2a1d7f1787)"><g clip-path="url(#2dda786e2a)"><g clip-path="url(#25f640ae3f)"><path fill="#ffa2b6" d="M 185.925781 79.433594 C 188.597656 83.625 189.585938 88.15625 188.894531 93.035156 C 187.925781 97.765625 185.867188 101.96875 182.71875 105.644531 C 179.488281 109.226562 176.25 112.800781 173.003906 116.371094 C 169.605469 120.21875 166.34375 124.175781 163.214844 128.238281 C 157.53125 135.921875 152.800781 144.113281 149.03125 152.824219 C 146.996094 157.53125 145.195312 162.328125 143.628906 167.21875 C 142.941406 169.082031 142.257812 170.941406 141.570312 172.800781 C 140.972656 174.238281 140.355469 175.667969 139.722656 177.089844 C 138.230469 180.253906 136.304688 183.144531 133.953125 185.761719 C 129.539062 190.195312 124.183594 192.941406 117.890625 193.992188 C 113.359375 194.660156 108.824219 194.757812 104.289062 194.289062 C 97.523438 193.433594 90.871094 191.953125 84.332031 189.855469 C 77.441406 187.542969 71.148438 184.089844 65.464844 179.484375 C 62.511719 176.894531 60.101562 173.878906 58.230469 170.429688 C 56.96875 168.105469 55.9375 165.660156 55.136719 163.09375 C 54.445312 160.824219 53.855469 158.527344 53.363281 156.203125 C 52.679688 153.003906 52.003906 149.804688 51.34375 146.597656 C 50.570312 142.996094 49.414062 139.523438 47.871094 136.183594 C 47.796875 136.101562 47.726562 136.023438 47.65625 135.941406 C 46.25 132.679688 44.027344 130.113281 40.988281 128.246094 C 40.003906 127.664062 39.007812 127.117188 37.988281 126.605469 C 34.816406 125.273438 31.679688 123.855469 28.582031 122.355469 C 26.46875 121.1875 24.5 119.804688 22.679688 118.214844 C 20.234375 115.769531 18.433594 112.898438 17.277344 109.605469 C 15.757812 104.425781 16.390625 99.53125 19.179688 94.921875 C 20.691406 92.53125 22.640625 90.578125 25.03125 89.058594 C 27.207031 87.789062 29.375 86.503906 31.527344 85.203125 C 32.527344 84.625 33.511719 83.996094 34.472656 83.324219 C 36.582031 81.382812 38.574219 79.332031 40.449219 77.167969 C 46.375 69.566406 52.472656 62.09375 58.738281 54.757812 C 60.8125 52.371094 62.917969 50.007812 65.058594 47.671875 C 67.570312 45.023438 70.25 42.550781 73.09375 40.257812 C 76.546875 37.535156 80.363281 35.386719 84.539062 33.808594 C 93.351562 30.753906 101.390625 32.140625 108.65625 37.964844 C 109.800781 38.902344 110.921875 39.867188 112.011719 40.867188 C 114.414062 43.210938 116.800781 45.574219 119.171875 47.949219 C 123.957031 52.621094 129.542969 55.871094 135.929688 57.703125 C 137.925781 58.269531 139.941406 58.78125 141.976562 59.234375 C 145.929688 59.957031 149.871094 60.738281 153.804688 61.578125 C 160.09375 63.125 166.148438 65.265625 171.96875 67.992188 C 175.355469 69.703125 178.515625 71.777344 181.453125 74.210938 C 183.191406 75.75 184.683594 77.488281 185.925781 79.433594 Z M 182.542969 82.335938 C 184.789062 86.859375 184.941406 91.445312 183.003906 96.101562 C 181.921875 98.765625 180.445312 101.203125 178.574219 103.414062 C 175.003906 107.351562 171.46875 111.339844 167.96875 115.390625 C 163.882812 120.117188 160.050781 125.035156 156.472656 130.144531 C 152.402344 136.199219 148.871094 142.53125 145.882812 149.140625 C 144.875 151.453125 143.894531 153.777344 142.941406 156.113281 C 141.128906 161.085938 139.277344 166.046875 137.382812 171 C 136.46875 173.289062 135.398438 175.503906 134.179688 177.644531 C 130.035156 184.4375 124.027344 188.507812 116.167969 189.859375 C 111.039062 190.628906 105.929688 190.617188 100.839844 189.828125 C 95.222656 188.910156 89.726562 187.523438 84.34375 185.675781 C 78.421875 183.535156 73.007812 180.453125 68.097656 176.429688 C 66.328125 174.886719 64.804688 173.128906 63.519531 171.15625 C 61.214844 167.769531 59.539062 164.097656 58.488281 160.136719 C 57.257812 155.003906 56.117188 149.847656 55.070312 144.671875 C 54.019531 139.90625 52.257812 135.429688 49.78125 131.238281 C 48.085938 128.65625 45.933594 126.550781 43.320312 124.925781 C 42.164062 124.210938 40.976562 123.550781 39.761719 122.945312 C 36.589844 121.613281 33.453125 120.195312 30.355469 118.699219 C 28.207031 117.535156 26.273438 116.085938 24.554688 114.347656 C 23.105469 112.644531 21.988281 110.75 21.203125 108.664062 C 20.089844 105.1875 20.300781 101.804688 21.835938 98.515625 C 22.730469 96.582031 24.007812 94.945312 25.667969 93.597656 C 26.328125 93.070312 27.007812 92.570312 27.699219 92.097656 C 29.390625 91.125 31.035156 90.203125 32.625 89.332031 C 34.457031 88.207031 36.246094 87.015625 38 85.757812 C 38.90625 84.71875 39.882812 83.742188 40.925781 82.824219 C 43.546875 79.855469 46.015625 76.773438 48.339844 73.570312 C 53.429688 67.261719 58.59375 61.011719 63.832031 54.824219 C 66.425781 51.84375 69.148438 48.980469 71.996094 46.238281 C 75.511719 42.875 79.484375 40.195312 83.917969 38.195312 C 87.453125 36.667969 91.128906 36.015625 94.949219 36.234375 C 98.886719 36.75 102.417969 38.242188 105.550781 40.707031 C 107.367188 42.125 109.09375 43.644531 110.738281 45.261719 C 112.925781 47.484375 115.140625 49.671875 117.382812 51.835938 C 121.832031 55.949219 126.914062 58.957031 132.617188 60.855469 C 135.660156 61.71875 138.734375 62.5 141.84375 63.195312 C 144.824219 63.730469 147.804688 64.28125 150.785156 64.855469 C 156.972656 66.207031 162.933594 68.179688 168.664062 70.777344 C 171.867188 72.328125 174.878906 74.203125 177.699219 76.410156 C 179.671875 78.121094 181.285156 80.097656 182.542969 82.335938 Z M 182.542969 82.335938 " fill-opacity="1" fill-rule="evenodd"/></g></g></g></g></g></g></g></g></g></svg>